<svg width="22" height="20" viewBox="0 0 22 20" fill="none" xmlns="http://www.w3.org/2000/svg">
<path d="M0 0.9167C0 0.4087 0.409007 0 0.917007 0H2.655C3.682 0 4.564 0.729501 4.755 1.7378L6.726 12.0885C6.81 12.5201 7.188 12.8333 7.627 12.8333H18.639C19.147 12.8333 19.556 13.242 19.556 13.75C19.556 14.258 19.147 14.6667 18.639 14.6667H7.627C6.306 14.6667 5.172 13.7271 4.927 12.4323L2.95599 2.0816C2.92999 1.9365 2.803 1.8333 2.655 1.8333H0.917007C0.409007 1.8333 0 1.4247 0 0.9167ZM4.88901 17.7222C4.88901 17.4815 4.936 17.2431 5.028 17.0206C5.121 16.7982 5.25599 16.5961 5.42599 16.4259C5.59599 16.2556 5.798 16.1206 6.021 16.0284C6.243 15.9363 6.481 15.8889 6.722 15.8889C6.963 15.8889 7.201 15.9363 7.424 16.0284C7.646 16.1206 7.848 16.2556 8.019 16.4259C8.189 16.5961 8.324 16.7982 8.416 17.0206C8.508 17.2431 8.556 17.4815 8.556 17.7222C8.556 17.963 8.508 18.2014 8.416 18.4238C8.324 18.6462 8.189 18.8483 8.019 19.0186C7.848 19.1888 7.646 19.3239 7.424 19.416C7.201 19.5081 6.963 19.5556 6.722 19.5556C6.481 19.5556 6.243 19.5081 6.021 19.416C5.798 19.3239 5.59599 19.1888 5.42599 19.0186C5.25599 18.8483 5.121 18.6462 5.028 18.4238C4.936 18.2014 4.88901 17.963 4.88901 17.7222ZM17.722 15.8889C18.208 15.8889 18.675 16.082 19.019 16.4259C19.362 16.7697 19.556 17.236 19.556 17.7222C19.556 18.2085 19.362 18.6748 19.019 19.0186C18.675 19.3624 18.208 19.5556 17.722 19.5556C17.236 19.5556 16.77 19.3624 16.426 19.0186C16.082 18.6748 15.889 18.2085 15.889 17.7222C15.889 17.236 16.082 16.7697 16.426 16.4259C16.77 16.082 17.236 15.8889 17.722 15.8889Z" />
<path opacity="0.4" d="M6.52003 11H17.539C18.784 11 19.873 10.1674 20.193 8.9642L21.759 3.1472C22.023 2.1771 21.29 1.2222 20.285 1.2222H4.58704C4.66404 1.3826 4.72104 1.5583 4.75504 1.7379L6.52003 11Z" />
</svg>
