<svg width="14" height="13" viewBox="0 0 14 13" fill="none" xmlns="http://www.w3.org/2000/svg">
<path d="M0 0.583333C0 0.260069 0.260069 0 0.583333 0H1.68924C2.34306 0 2.90451 0.464236 3.02604 1.1059L4.28021 7.69271C4.33368 7.96736 4.57431 8.16667 4.85382 8.16667H11.8611C12.1844 8.16667 12.4444 8.42674 12.4444 8.75C12.4444 9.07326 12.1844 9.33333 11.8611 9.33333H4.85382C4.01285 9.33333 3.29097 8.73542 3.13542 7.91146L1.88125 1.32465C1.86424 1.23229 1.78403 1.16667 1.68924 1.16667H0.583333C0.260069 1.16667 0 0.906597 0 0.583333ZM3.11111 11.2778C3.11111 11.1246 3.14129 10.9729 3.19992 10.8313C3.25855 10.6898 3.34448 10.5612 3.45282 10.4528C3.56115 10.3445 3.68977 10.2585 3.83131 10.1999C3.97286 10.1413 4.12457 10.1111 4.27778 10.1111C4.43099 10.1111 4.5827 10.1413 4.72424 10.1999C4.86579 10.2585 4.9944 10.3445 5.10274 10.4528C5.21107 10.5612 5.29701 10.6898 5.35564 10.8313C5.41427 10.9729 5.44444 11.1246 5.44444 11.2778C5.44444 11.431 5.41427 11.5827 5.35564 11.7242C5.29701 11.8658 5.21107 11.9944 5.10274 12.1027C4.9944 12.2111 4.86579 12.297 4.72424 12.3556C4.5827 12.4143 4.43099 12.4444 4.27778 12.4444C4.12457 12.4444 3.97286 12.4143 3.83131 12.3556C3.68977 12.297 3.56115 12.2111 3.45282 12.1027C3.34448 11.9944 3.25855 11.8658 3.19992 11.7242C3.14129 11.5827 3.11111 11.431 3.11111 11.2778ZM11.2778 10.1111C11.5872 10.1111 11.8839 10.234 12.1027 10.4528C12.3215 10.6716 12.4444 10.9684 12.4444 11.2778C12.4444 11.5872 12.3215 11.8839 12.1027 12.1027C11.8839 12.3215 11.5872 12.4444 11.2778 12.4444C10.9684 12.4444 10.6716 12.3215 10.4528 12.1027C10.234 11.8839 10.1111 11.5872 10.1111 11.2778C10.1111 10.9684 10.234 10.6716 10.4528 10.4528C10.6716 10.234 10.9684 10.1111 11.2778 10.1111Z" />
<path opacity="0.4" d="M4.14893 6.99999H11.1611C11.9534 6.99999 12.6462 6.47013 12.8503 5.70451L13.8468 2.00277C14.0146 1.38541 13.5479 0.777771 12.9086 0.777771H2.91907C2.96768 0.879854 3.00414 0.99166 3.02601 1.1059L4.14893 6.99999Z" />
</svg>
